<svg width="711.1879" height="669.68268" xmlns="http://www.w3.org/2000/svg" data-name="Layer 1">
 <title>feeling_proud</title>

 <g>
  <title>Layer 1</title>
  <polygon id="svg_1" fill="#e6e6e6" points="516.3259887695312,379.01800537109375 516.3259887695312,564.0130004882812 547.27001953125,614.4429931640625 549.625,618.2789916992188 671.7219848632812,618.2789916992188 674.1890258789062,379.01800537109375 516.3259887695312,379.01800537109375 "/>
  <polygon id="svg_2" opacity="0.1" points="516.326 380.018 516.326 565.013 547.27 615.443 549.169 380.018 516.326 380.018"/>
  <polygon id="svg_3" fill="#e6e6e6" points="221.566 375.084 221.566 560.08 190.622 610.51 188.267 614.345 66.17 614.345 63.703 375.084 221.566 375.084"/>
  <polygon id="svg_4" opacity="0.1" points="221.566 375.084 221.566 560.08 190.622 610.51 188.723 375.084 221.566 375.084"/>
  <polygon id="svg_5" fill="#e6e6e6" points="711.188 371.385 711.188 382.484 47.67 382.484 47.67 366.451 109.335 334.385 656.923 334.385 711.188 371.385"/>
  <polygon id="svg_6" opacity="0.1" points="711.188 371.385 711.188 382.484 47.67 382.484 47.67 366.451 711.188 371.385"/>
  <polygon id="svg_7" fill="#292738" points="142.635 426.883 113.035 426.883 100.702 418.25 156.201 418.25 142.635 426.883"/>
  <polygon id="svg_8" fill="#292738" points="142.635 462.649 113.035 462.649 100.702 454.016 156.201 454.016 142.635 462.649"/>
  <polygon id="svg_9" fill="#292738" points="142.635 513.215 113.035 513.215 100.702 504.581 156.201 504.581 142.635 513.215"/>
  <polygon id="svg_10" fill="#292738" points="142.635 563.78 113.035 563.78 100.702 555.147 156.201 555.147 142.635 563.78"/>
  <polygon id="svg_11" fill="#292738" points="595.2570190429688,431.8160095214844 624.8569946289062,431.8160095214844 637.1900024414062,423.1830139160156 581.6909790039062,423.1830139160156 595.2570190429688,431.8160095214844 "/>
  <polygon id="svg_12" fill="#292738" points="595.2570190429688,466.5820007324219 624.8569946289062,466.5820007324219 637.1900024414062,457.9490051269531 581.6909790039062,457.9490051269531 595.2570190429688,466.5820007324219 "/>
  <polygon id="svg_13" fill="#292738" points="595.2570190429688,517.1480102539062 624.8569946289062,517.1480102539062 637.1900024414062,508.5150146484375 581.6909790039062,508.5150146484375 595.2570190429688,517.1480102539062 "/>
  <polygon id="svg_14" fill="#292738" points="595.257 568.713 624.857 568.713 637.19 560.08 581.691 560.08 595.257 568.713"/>
  <path id="svg_15" fill="#282738" d="m614.41382,120.45627l-249.18539,0a9.4227,9.4227 0 0 0 -9.42389,9.42389l0,167.85773a9.4227,9.4227 0 0 0 9.42389,9.42389l94.59286,0l-3.54388,22.62622s-20.25278,10.75928 -6.01251,11.07574s81.32764,0 81.32764,0s12.97449,0 -7.59479,-11.39221l-3.33362,-22.30975l93.74969,0a9.42266,9.42266 0 0 0 9.42389,-9.42389l0,-167.85773a9.42266,9.42266 0 0 0 -9.42389,-9.42389z"/>
  <rect id="svg_16" fill="#f2f2f2" height="139.87094" width="249.99557" y="130.42445" x="365.82336"/>
  <circle id="svg_17" fill="#f2f2f2" r="1.58225" cy="125.99415" cx="490.82114"/>
  <circle id="svg_18" fill="#f2f2f2" r="6.01255" cy="294.34559" cx="490.82114"/>
  <polygon id="svg_19" fill="#292738" points="481.4519958496094,356.9519958496094 481.4519958496094,360.11700439453125 311.2019958496094,360.11700439453125 311.2019958496094,357.5849914550781 311.4360046386719,356.9519958496094 315.6319885253906,345.55999755859375 477.97100830078125,345.55999755859375 481.4519958496094,356.9519958496094 "/>
  <path id="svg_20" fill="#292738" d="m546.96954,354.854c-0.31012,1.3259 -1.48102,2.72467 -4.12653,4.04739c-9.49347,4.74677 -28.797,-1.26578 -28.797,-1.26578s-14.87308,-2.53162 -14.87308,-9.17706a11.86592,11.86592 0 0 1 1.30377,-0.7753c3.9913,-2.11163 17.22525,-7.3222 40.69046,0.22064a9.78618,9.78618 0 0 1 4.46033,2.923a4.667,4.667 0 0 1 1.34204,4.0271z"/>
  <path id="svg_21" opacity="0.1" d="m546.96954,353.854c-11.62,4.45245 -21.97742,4.78473 -32.60699,-2.59805a23.34328,23.34328 0 0 0 -13.88583,-4.57269c3.9913,-2.11163 17.22531,-7.3222 40.69052,0.22064a9.78618,9.78618 0 0 1 4.46033,2.923a4.667,4.667 0 0 1 1.34198,4.0271z"/>
  <ellipse id="svg_22" fill="#f2f2f2" ry="1.2658" rx="4.11385" cy="350.99016" cx="532.40017"/>
  <polygon id="svg_23" opacity="0.1" points="481.452 357.952 481.452 361.117 311.202 361.117 311.202 358.585 311.436 357.952 481.452 357.952"/>
  <path id="svg_24" fill="#000000" d="m94.66145,0.00015a8.55394,8.55394 0 0 0 -4.96124,1.1083c-1.47601,1.0108 -2.40631,2.78162 -3.3559,4.42947a52.98576,52.98576 0 0 1 -14.4343,16.30464c-4.28894,3.142 -9.74167,7.05966 -9.00787,12.85269a17.37163,17.37163 0 0 0 2.09058,5.42549c3.9566,7.987 14.75357,14.15927 13.69156,23.2731c3.931,-6.58093 -1.327,-9.83501 2.604,-16.41586c1.87204,-3.134 5.12411,-6.67168 7.95053,-4.70354c0.94638,0.65901 1.56778,1.84096 2.55313,2.41917c2.35123,1.37971 4.8526,-1.258 6.9339,-3.12633c7.17685,-6.44263 17.383,-4.75481 26.31384,-2.74744c4.21625,0.94768 8.84732,2.19101 11.33972,6.2207c3.27701,5.29822 -3.11343,11.02034 -4.72806,17.0105a3.264,3.264 0 0 0 3.50293,4.06213c2.67975,-0.26434 5.85419,-0.481 6.01279,-1.65694c3.37152,0.12 7.50269,-0.26181 8.94727,-3.77251a14.76216,14.76216 0 0 0 0.69254,-4.29318c0.53018,-5.89719 3.03308,-11.27719 4.69119,-16.88994s2.37906,-12.19049 -0.4191,-17.16679a19.86362,19.86362 0 0 0 -3.66602,-4.45557c-15.879,-15.36675 -36.75641,-17.90092 -56.7515,-17.87811z"/>
  <path id="svg_25" fill="#ffb8b8" d="m82.13771,74.9052s3.4534,28.7784 -9.20911,31.08069s11.51138,41.4409 11.51138,41.4409l57.55679,6.9068l-13.81363,-46.04544s-9.20911,-3.45341 -3.4534,-26.47614s-42.59204,-6.90681 -42.59204,-6.90681z"/>
  <polygon id="svg_26" fill="#ffb8b8" points="47.028 569.318 51.633 632.631 75.806 632.631 68.9 569.318 47.028 569.318"/>
  <polygon id="svg_27" fill="#ffb8b8" points="224.303 449.6 227.756 502.552 254.233 491.041 243.872 447.298 224.303 449.6"/>
  <path id="svg_28" fill="#684747" d="m28.761,326.57959s1.15112,66.7659 8.05798,88.63748s5.75571,23.02271 4.60455,26.47614s-2.30228,1.15112 -2.30228,6.9068s-2.30228,96.6954 0,104.75339s-6.9068,21.87158 0,23.02271s39.13864,0 40.28976,-6.90674s-9.20908,-9.20911 -4.60452,-13.81372s11.51135,-98.99765 11.51135,-98.99765l16.11591,-65.61478l29.92953,-34.53409l63.31244,0l19.56934,75.97498s-8.05801,21.87164 -2.30231,21.87164s40.28979,6.9068 40.28979,-18.41821s-11.51135,-100.14883 -13.8136,-102.45111s1.15112,-10.36023 -2.30228,-13.81363s-43.74316,-27.62729 -58.70795,-32.23181s-35.95779,-10.08487 -35.95779,-10.08487l-113.68994,49.22348z"/>
  <path id="svg_29" fill="#000000" d="m254.23256,481.83188s-17.267,-5.75568 -25.32501,11.51135s-4.60452,21.87155 -4.60452,21.87155s26.47614,9.20917 31.08069,4.60461c2.00334,-2.00342 8.36467,-2.69922 14.9127,-2.84619c9.97287,-0.22382 12.62625,-14.33328 3.20749,-17.61887q-0.42142,-0.14703 -0.85318,-0.25543c-9.20908,-2.30231 -18.41817,-17.26703 -18.41817,-17.26703z"/>
  <circle id="svg_30" fill="#ffb8b8" r="34.53409" cy="59.36486" cx="108.03826"/>
  <path id="svg_31" fill="#ffffff" d="m63.14394,120.37508s56.40567,11.51137 70.2193,-6.90681s19.56931,51.80112 19.56931,51.80112l6.90683,73.67273l-10.36023,40.28976s-54.10339,43.74316 -71.37042,47.19656s-43.74319,5.75571 -43.74319,5.75571s8.05801,-127.77612 8.05801,-130.0784s20.7204,-81.73067 20.7204,-81.73067z"/>
  <path id="svg_32" fill="#e6e6e6" d="m80.29826,98.7859s-12.5498,-7.18924 -16.0032,-0.28241s-35.68521,24.17384 -39.13861,24.17384s6.90683,95.54431 2.30228,107.05566s-26.47614,95.54434 -13.81363,102.45114s3.4534,-6.90683 16.11591,10.36023s74.82385,17.267 78.27725,10.36023s-27.62726,-58.70801 -21.87158,-107.05569s14.96478,-115.1136 6.90683,-124.32269s-12.77524,-22.74031 -12.77524,-22.74031z"/>
  <path id="svg_33" fill="#e6e6e6" d="m120.85194,105.56143l1.60342,-5.51801s47.89542,15.87825 50.19772,26.23848s1.15112,82.88182 -6.90683,88.6375s-19.56934,14.96475 -11.51138,28.77838s17.267,28.77841 24.17389,29.92953s19.56931,9.20911 16.11591,17.267s-44.89432,-6.9068 -44.89432,-6.9068s-27.62729,-20.72046 -26.47614,-52.95227s-2.30228,-125.47382 -2.30228,-125.47382z"/>
  <path id="svg_34" fill="#ffb8b8" d="m162.14165,242.39551l-27.62726,51.80112s-40.28976,41.44092 -17.267,46.04547s35.68521,-37.98752 35.68521,-37.98752l29.92953,-42.59198l-20.72049,-17.26709z"/>
  <path id="svg_35" fill="#000000" d="m96.34377,9.03591a7.83806,7.83806 0 0 0 -4.03867,0.78334a9.41322,9.41322 0 0 0 -2.73184,3.13071a39.77267,39.77267 0 0 1 -11.75009,11.524c-3.49136,2.22076 -7.93015,4.98972 -7.33279,9.0842a11.35949,11.35949 0 0 0 1.70181,3.8347a30.16344,30.16344 0 0 1 3.66519,18.80067l9.6001,-13.95399c1.52396,-2.21507 4.17126,-4.7155 6.47208,-3.32442c0.77039,0.46577 1.27625,1.30116 2.07837,1.70985c1.914,0.97517 3.9502,-0.88913 5.64447,-2.20967c5.84225,-4.55362 14.15048,-3.36067 21.42059,-1.94188c3.43219,0.66982 7.20206,1.5486 9.23099,4.39676c3.3717,4.73311 -0.14899,11.57211 1.81882,17.04001a5.02339,5.02339 0 0 0 2.07852,-3.31717c2.74457,0.08484 6.10751,-0.185 7.28345,-2.66638a9.18757,9.18757 0 0 0 0.56375,-3.03439c0.43161,-4.16809 2.46909,-7.97064 3.81882,-11.93768s1.93668,-8.61617 -0.34116,-12.13339a14.68107,14.68107 0 0 0 -2.98425,-3.14917c-12.92624,-10.86109 -29.92133,-12.65222 -46.19815,-12.6361z"/>
  <path id="svg_36" fill="#e6e6e6" d="m162.14165,123.67734l10.72528,2.84686s24.95996,63.91901 19.20428,107.6622s-9.20911,34.53409 -9.20911,34.53409s-9.20908,-20.72046 -29.92953,-16.11591l9.20908,-128.92725z"/>
  <path id="svg_37" fill="#000000" d="m48.62288,624.26331c-2.77591,3.77234 -2.21936,9.16467 -4.67828,13.15076c-2.13144,3.45532 -6.14838,5.26703 -8.81439,8.32874a22.32616,22.32616 0 0 0 -2.26617,3.25989c-2.47311,4.14252 -4.48328,9.45172 -2.04761,13.61633c1.95938,3.35028 6.07788,4.65967 9.85501,5.552c4.77408,1.12805 9.73434,2.03076 14.56354,1.16882s9.54883,-3.81903 11.27066,-8.41248a32.50011,32.50011 0 0 1 1.20511,-3.4007c2.61746,-5.15289 10.82748,-5.20862 13.50629,-10.32996c1.87466,-3.58405 0.15137,-7.9162 -1.5712,-11.57574l-5.26108,-11.17712c-1.74591,-3.70923 -8.82361,-1.57605 -12.5134,-2.4649c-4.81223,-1.15912 -9.78656,-2.43634 -13.24847,2.28436z"/>
  <path id="svg_38" fill="#ffb8b8" d="m10.19168,265.41824l48.34773,74.82385s29.92953,37.98752 39.13861,20.72046s-32.23181,-46.04544 -32.23181,-46.04544l-31.08069,-57.55676l-24.17384,8.05789z"/>
  <path id="svg_39" fill="#e6e6e6" d="m34.36552,124.97961l-9.20908,-2.30228s-18.41818,5.75568 -23.02272,29.92953s-1.15114,120.86932 4.60454,122.02045s28.42725,-16.83664 32.05624,-13.02286s-7.88239,-15.75555 -4.42902,-26.11578s0.00003,-110.50906 0.00003,-110.50906z"/>
  <g data-name="Group 13" id="f3c2397c-d780-4cc6-97d8-1503d8277a2c">
   <rect fill="#059999" height="7.1626" width="29.75235" y="176.36275" x="437.40692" data-name="Rectangle 55" id="ad41612f-86f7-46b2-a964-3a5da7bcf3cf"/>
   <rect fill="#059999" height="7.1626" width="10.46842" y="176.36275" x="559.72215" data-name="Rectangle 56" id="b9a0b375-cc2a-4c59-8850-661af54e4f62"/>
   <rect fill="#059999" height="7.1626" width="10.46842" y="176.36275" x="580.65899" data-name="Rectangle 57" id="e174c2ab-9bc5-41ec-b37c-b06fbf8a9878"/>
   <rect fill="#059999" height="7.1626" width="71.07506" y="176.36275" x="477.62768" data-name="Rectangle 58" id="ba2479ac-4c7d-43b4-a028-73b1e20e4002"/>
   <rect fill="#059999" height="7.1626" width="29.75235" y="222.6442" x="399.94099" data-name="Rectangle 59" id="ac60ef86-00f2-480b-8171-28b6fdfc1958"/>
   <rect fill="#059999" height="7.1626" width="10.46842" y="222.6442" x="522.25621" data-name="Rectangle 60" id="b3d8298d-cd65-487a-8b19-4cee946356e7"/>
   <rect fill="#059999" height="7.1626" width="10.46842" y="222.6442" x="543.19305" data-name="Rectangle 61" id="ed27f15f-f0c4-4569-8330-a6688f8e356c"/>
   <rect fill="#059999" height="7.1626" width="71.07506" y="222.6442" x="440.16176" data-name="Rectangle 62" id="f685c005-adaf-4d60-acda-005b037d82a6"/>
   <rect fill="#059999" height="7.1626" width="29.75235" y="192.34088" x="522.80718" data-name="Rectangle 63" id="eca7c7fc-83f8-48ca-a588-6606db47af3f"/>
   <rect fill="#059999" height="7.1626" width="29.75235" y="192.34088" x="563.02795" data-name="Rectangle 64" id="a71b5b2f-f8b9-481d-a301-5e3357e5fe42"/>
   <rect fill="#059999" height="7.1626" width="10.46842" y="192.34088" x="399.94099" data-name="Rectangle 66" id="abb3a25a-f854-41fc-8391-e6ad9fbe2417"/>
   <rect fill="#059999" height="7.1626" width="10.46842" y="192.34088" x="420.87784" data-name="Rectangle 67" id="add2b425-b775-4eb5-9c25-8c4c14f957c9"/>
   <rect fill="#059999" height="7.1626" width="71.07506" y="192.34088" x="441.81466" data-name="Rectangle 68" id="b7159612-3b84-4b0b-a885-612eaab04c06"/>
   <rect fill="#059999" height="7.1626" width="29.75235" y="207.76802" x="461.09859" data-name="Rectangle 69" id="edfc7301-4de5-47dc-80e2-1ae2da982d6d"/>
   <rect fill="#059999" height="7.1626" width="29.75235" y="207.76802" x="420.87783" data-name="Rectangle 70" id="e1009f91-6275-4375-80fa-0d778e331fdc"/>
   <rect fill="#059999" height="7.1626" width="10.46842" y="207.76802" x="399.941" data-name="Rectangle 71" id="a060fb9f-1f1a-4862-9a69-16dd49199e18"/>
   <rect fill="#059999" height="7.1626" width="10.46842" y="207.76802" x="582.31189" data-name="Rectangle 73" id="b6754d5f-104f-449c-b9a9-cf9ac82bf5fe"/>
   <rect fill="#059999" height="7.1626" width="71.07506" y="207.76802" x="500.76841" data-name="Rectangle 74" id="e6ed1ccd-2cfd-450f-a339-07df3a1ee6bb"/>
  </g>
 </g>
</svg>